<?xml version="1.0" encoding="utf-8"?>
<!DOCTYPE svg PUBLIC "-//W3C//DTD SVG 20010904//EN" "http://www.w3.org/TR/2001/REC-SVG-20010904/DTD/svg10.dtd">
<svg version="1.0" xmlns="http://www.w3.org/2000/svg" width="182pt" height="152pt" viewBox="0 0 182 152" preserveAspectRatio="xMidYMid meet">
<g fill="#C9A82AFE">
<path d="M 33.64 124.81 C 25.61 118.80 17.87 109.83 14.16 102.24 L 11.50 96.79 L 15.99 92.80 C 22.40 87.10 32.25 81.54 41.50 78.40 C 51.10 75.15 68.75 73.96 77.70 75.96 C 80.70 76.63 83.44 76.89 83.79 76.54 C 85.93 74.40 65.63 63.60 55.50 61.49 C 42.45 58.77 25.64 60.09 13.25 64.81 C 7.14 67.14 7.11 67.09 9.97 57.84 C 11.99 51.29 17.44 41.60 22.19 36.11 C 24.69 33.21 25.32 33.00 31.54 33.00 C 39.25 33.00 48.36 35.13 54.99 38.50 C 65.48 43.81 77.68 56.29 84.02 68.19 C 88.19 76.01 89.45 75.75 88.66 67.21 C 87.67 56.65 84.44 45.35 79.55 35.41 C 75.89 27.99 73.69 25.01 67.54 19.17 C 63.39 15.23 60.00 11.85 60.00 11.65 C 60.00 11.46 63.49 10.44 67.75 9.40 C 78.69 6.72 103.31 6.72 114.25 9.40 C 118.51 10.44 122.00 11.46 122.00 11.65 C 122.00 11.85 118.61 15.23 114.46 19.17 C 108.31 25.01 106.11 27.99 102.45 35.41 C 97.56 45.35 94.33 56.65 93.34 67.21 C 92.58 75.46 93.89 76.11 97.38 69.23 C 100.97 62.16 110.30 50.68 116.73 45.44 C 127.00 37.08 138.05 33.00 150.46 33.00 C 156.68 33.00 157.31 33.21 159.81 36.11 C 164.56 41.60 170.01 51.29 172.03 57.84 C 174.89 67.09 174.86 67.14 168.75 64.81 C 156.36 60.09 139.55 58.77 126.50 61.49 C 116.37 63.60 96.07 74.40 98.21 76.54 C 98.56 76.89 101.30 76.63 104.30 75.96 C 113.25 73.96 130.90 75.15 140.50 78.40 C 149.75 81.54 159.60 87.10 166.01 92.80 L 170.50 96.79 L 167.84 102.24 C 164.13 109.83 156.39 118.80 148.36 124.81 C 144.63 127.61 141.43 129.77 141.27 129.60 C 141.10 129.44 140.29 126.69 139.46 123.49 C 136.03 110.36 127.12 97.62 116.58 90.81 C 88.20 72.47 51.69 88.54 42.66 123.35 C 41.82 126.56 40.98 129.35 40.79 129.55 C 40.59 129.74 37.37 127.61 33.64 124.81Z"/></g>
<g fill="#9B9E9CFE">
<path d="M 87.65 120.75 C 86.13 107.41 84.64 95.04 84.33 93.25 L 83.78 90.00 L 91.00 90.00 L 98.22 90.00 L 97.68 93.25 C 97.38 95.04 95.89 107.41 94.36 120.75 C 92.84 134.09 91.32 145.00 91.00 145.00 C 90.67 145.00 89.17 134.09 87.65 120.75Z"/></g>
</svg>
